<?xml version="1.0" encoding="utf-8"?>
<svg version="1.1" id="Layer_2_00000116945101501492365140000012256047900082073018_"
	 xmlns="http://www.w3.org/2000/svg" xmlns:xlink="http://www.w3.org/1999/xlink" x="0px" y="0px" viewBox="0 0 500 500"
	 style="enable-background:new 0 0 500 500;" xml:space="preserve">
<style type="text/css">
	.st0{fill:#F20DA4;}
	.st1{fill:#0052E8;}
</style>
<g>
	<path class="st0" d="M435.7,404l-9-40.4l-11.9-9.5c39.1-54,51.5-113.4,37.2-178.3c-13.5-61.1-46.5-108.2-98.9-141.1
		C300.7,1.9,243.3-7.7,180.9,6.1C118.5,19.9,70.5,52.7,36.8,104.7C3.1,156.6-6.9,213.1,6.6,274.3C20,335,52.9,381.7,105.2,414.4
		c52.4,32.7,109.8,42.2,172.1,28.4c17.1-3.8,35.1-9.9,54.1-18.5l21.4,16.8l62.6-8.2C429.5,431.1,438.8,417.7,435.7,404 M225.2,359.2
		c-60.1-4.8-108-48.1-120.2-103.1c-16.8-33.4-14-83.2,3.6-114.8c30.2-54,106.3-75.5,165.2-41.8c9.5,5.4,22.6,13.8,30.4,21
		c15.5,9.6,28.8,22.1,39.2,36.8l-82.6,56.9c-15,10.6-12.4,30.3,5.5,42.6l80,44.2C321.1,339.4,275.4,363.3,225.2,359.2"/>
	<path class="st1" d="M478.7,405l-51.9-41.3l9,40.4c3.1,13.7-6.3,27-20.2,28.9l-62.6,8.2l61,47.9c23.7,18.2,57.7,13.2,75.2-10.9
		C506,454.9,501.3,422.5,478.7,405"/>
	<path class="st1" d="M102.3,219.4c5.1-71.4,68.5-124.5,141.5-118.7c22.2,1.8,42.8,8.9,60.5,19.9c-7.9-7.2-20.9-15.6-30.4-21
		c-59-33.7-135-12.2-165.2,41.8C91,172.9,88.2,222.8,105,256.2C102.4,244.3,101.4,232,102.3,219.4"/>
</g>
</svg>
